<?xml version="1.0" encoding="UTF-8" standalone="no"?>
<svg width="24px" height="17px" viewBox="0 0 24 17" version="1.1" xmlns="http://www.w3.org/2000/svg" xmlns:xlink="http://www.w3.org/1999/xlink" xmlns:sketch="http://www.bohemiancoding.com/sketch/ns">
    <!-- Generator: Sketch 3.3 (11970) - http://www.bohemiancoding.com/sketch -->
    <g id="Page-1" stroke="none" stroke-width="1" fill="none" fill-rule="evenodd" sketch:type="MSPage">
        <g id="Informotion---Visualization" sketch:type="MSArtboardGroup" transform="translate(-1011.000000, -82.000000)" fill="#108CEE">
            <g id="Rectangle-24-+-Shape" sketch:type="MSLayerGroup" transform="translate(991.000000, 68.000000)">
                <path d="M43.1274424,21.7355341 L36.319312,14.8166058 C35.9039309,14.3944647 35.2302664,14.3944647 34.8148854,14.8166058 C34.3994192,15.2388334 34.3994192,15.9232884 34.8148854,16.345516 L39.8070321,21.4189066 L21.6247283,21.4189066 C21.0372718,21.4189066 20.5609579,21.9029722 20.5609579,22.4999892 C20.5609579,23.0969197 21.0372718,23.5810717 21.6247283,23.5810717 L39.8070321,23.5810717 L34.8150556,28.6544624 C34.3995894,29.07669 34.3995894,29.7611449 34.8150556,30.1833725 C35.0227035,30.3943134 35.2950288,30.5 35.5672689,30.5 C35.839509,30.5 36.1117491,30.3943134 36.3194822,30.1833725 L43.1274424,23.2644443 C43.5429086,22.8422167 43.5429086,22.1577617 43.1274424,21.7355341 L43.1274424,21.7355341 Z" id="Shape" sketch:type="MSShapeGroup"></path>
            </g>
        </g>
    </g>
</svg>