<?xml version="1.0" encoding="UTF-8" standalone="no"?>
<svg width="54px" height="54px" viewBox="0 0 54 54" version="1.1" xmlns="http://www.w3.org/2000/svg" xmlns:xlink="http://www.w3.org/1999/xlink" xmlns:sketch="http://www.bohemiancoding.com/sketch/ns">
    <!-- Generator: Sketch 3.3 (11970) - http://www.bohemiancoding.com/sketch -->
    <title>Rectangle 26 Copy 4 + Imported Layers Copy</title>
    <desc>Created with Sketch.</desc>
    <defs></defs>
    <g id="Page-1" stroke="none" stroke-width="1" fill="none" fill-rule="evenodd" sketch:type="MSPage">
        <g id="Desktop-HD-Copy-4" sketch:type="MSArtboardGroup" transform="translate(-1127.000000, -292.000000)">
            <g id="Rectangle-26-Copy-4-+-Imported-Layers-Copy" sketch:type="MSLayerGroup" transform="translate(1127.000000, 292.000000)">
                <rect id="Rectangle-26-Copy-4" fill="#72C14E" sketch:type="MSShapeGroup" x="0" y="0" width="54" height="54"></rect>
                <g id="Imported-Layers-Copy" transform="translate(16.654206, 15.392523)" stroke="#FFFFFF" sketch:type="MSShapeGroup" stroke-linecap="round" stroke-linejoin="round">
                    <path d="M2.77570093,17.1861308 C2.77570093,17.1861308 -1.95157009,3.20669159 19.9068224,0.367906542 C19.9068224,0.367906542 20.8566168,21.8795888 2.77570093,17.1861308 L2.77570093,17.1861308 Z M2.91953271,17.2951402 C1.78149533,19.0397944 0.835233645,20.8823551 0.222056075,22.7834579 L2.91953271,17.2951402 Z" id="Stroke-1" stroke-width="1.51401869"></path>
                    <path d="M10.0737757,9.11186916 L9.45151402,6.28519626 M12.585028,7.19411215 L15.5691589,8.22616822 M8.05407477,11.396271 L12.0934766,12.9501589 M7.06239252,12.5370841 L6.08383178,9.24611215" id="Stroke-3" stroke-width="1.00934579"></path>
                    <path d="M5.55140187,14.635514 C11.1028037,6.56074766 16.1495327,4.54205607 16.1495327,4.54205607" id="Path" stroke-width="1.00934579"></path>
                </g>
            </g>
        </g>
    </g>
</svg>