<?xml version="1.0" encoding="UTF-8" standalone="no"?>
<svg width="781px" height="788px" viewBox="0 0 781 788" version="1.1" xmlns="http://www.w3.org/2000/svg" xmlns:xlink="http://www.w3.org/1999/xlink" xmlns:sketch="http://www.bohemiancoding.com/sketch/ns">
    <!-- Generator: Sketch 3.3 (11970) - http://www.bohemiancoding.com/sketch -->
    <title>Intro-world</title>
    <desc>Created with Sketch.</desc>
    <defs>
        <path id="path-1" d="M481.828,241.328 C481.828,374.343 374.001,482.173 240.986,482.173 C107.972,482.173 0.141,374.343 0.141,241.328 C0.141,108.315 107.972,0.485 240.986,0.485 C374.001,0.485 481.828,108.315 481.828,241.328"></path>
    </defs>
    <g id="Page-1" stroke="none" stroke-width="1" fill="none" fill-rule="evenodd" sketch:type="MSPage">
        <g id="Informotion---Intro" sketch:type="MSArtboardGroup" transform="translate(-659.000000, 0.000000)">
            <g id="Intro-world" sketch:type="MSLayerGroup" transform="translate(659.000000, -255.000000)">
                <circle id="Oval-74" opacity="0.1" fill="#F0F9FF" sketch:type="MSShapeGroup" cx="521.5" cy="521.5" r="521.5"></circle>
                <circle id="Oval-74-Copy" opacity="0.1" fill="#F0F9FF" sketch:type="MSShapeGroup" cx="522" cy="521" r="421"></circle>
                <g id="Rectangle-26-+-Imported-Layers-Copy-3" transform="translate(201.000000, 791.000000)" sketch:type="MSShapeGroup">
                    <rect id="Rectangle-26" fill="#018CDD" x="0" y="0" width="83" height="83" rx="61.8357488"></rect>
                    <path d="M14.9043178,29.8965483 C16.872271,29.9019782 18.2786168,32.1879688 18.2786168,32.1879688 M31.5462056,32.1879688 C31.5462056,32.1879688 28.3751402,27.0334361 24.8930187,32.1879688 C21.4093458,37.3417259 18.2786168,32.1879688 18.2786168,32.1879688 M44.8137944,32.1879688 C44.8137944,32.1879688 41.6435047,27.0334361 38.1606075,32.1879688 C34.6761589,37.3417259 31.5462056,32.1879688 31.5462056,32.1879688 M58.0813832,32.1879688 C58.0813832,32.1879688 54.9118692,27.0334361 51.4274206,32.1879688 C47.9445234,37.3417259 44.8137944,32.1879688 44.8137944,32.1879688 M58.0813832,32.1879688 C58.0813832,32.1879688 61.2128879,37.3417259 64.6965607,32.1879688 C65.9074299,30.3960997 67.1113178,29.8965483 68.0956822,29.8996511 M14.9043178,39.208838 C16.872271,39.2142679 18.2786168,41.4994829 18.2786168,41.4994829 M31.5462056,41.4994829 C31.5462056,41.4994829 28.3751402,36.3465016 24.8930187,41.4994829 C21.4093458,46.6540156 18.2786168,41.4994829 18.2786168,41.4994829 M44.8137944,41.4994829 C44.8137944,41.4994829 41.6435047,36.3465016 38.1606075,41.4994829 C34.6761589,46.6540156 31.5462056,41.4994829 31.5462056,41.4994829 M58.0813832,41.4994829 C58.0813832,41.4994829 54.9118692,36.3465016 51.4274206,41.4994829 C47.9445234,46.6540156 44.8137944,41.4994829 44.8137944,41.4994829 M58.0813832,41.4994829 C58.0813832,41.4994829 61.2128879,46.6540156 64.6965607,41.4994829 C65.9074299,39.7083894 67.1113178,39.208838 68.0956822,39.2119408 M14.9043178,48.5211277 C16.872271,48.5265576 18.2786168,50.8125483 18.2786168,50.8125483 M31.5462056,50.8125483 C31.5462056,50.8125483 28.3751402,45.6580156 24.8930187,50.8125483 C21.4093458,55.967081 18.2786168,50.8125483 18.2786168,50.8125483 M44.8137944,50.8125483 C44.8137944,50.8125483 41.6435047,45.6580156 38.1606075,50.8125483 C34.6761589,55.967081 31.5462056,50.8125483 31.5462056,50.8125483 M58.0813832,50.8125483 C58.0813832,50.8125483 54.9118692,45.6580156 51.4274206,50.8125483 C47.9445234,55.967081 44.8137944,50.8125483 44.8137944,50.8125483 M58.0813832,50.8125483 C58.0813832,50.8125483 61.2128879,55.967081 64.6965607,50.8125483 C65.9074299,49.0206791 67.1113178,48.5211277 68.0956822,48.5242305" id="Imported-Layers" stroke="#FFFFFF" stroke-width="2.34051199" stroke-linecap="round" stroke-linejoin="round"></path>
                </g>
                <g id="Rectangle-26-Copy-4-+-Imported-Layers-Copy-Copy-Copy" transform="translate(348.000000, 878.000000)" sketch:type="MSShapeGroup">
                    <rect id="Rectangle-26-Copy-4" fill="#72C14E" x="0" y="0" width="83" height="83" rx="61.8357488"></rect>
                    <g id="Imported-Layers-Copy" transform="translate(25.598131, 23.658879)" stroke="#FFFFFF" stroke-linecap="round" stroke-linejoin="round">
                        <path d="M4.26635514,26.4157196 C4.26635514,26.4157196 -2.99963551,4.92880374 30.5975234,0.565485981 C30.5975234,0.565485981 32.0573925,33.6297383 4.26635514,26.4157196 L4.26635514,26.4157196 Z M4.48742991,26.583271 C2.7382243,29.2648692 1.28378505,32.0969533 0.341308411,35.0190187 L4.48742991,26.583271 Z" id="Stroke-1" stroke-width="2.34051199"></path>
                        <path d="M15.4837664,14.0052804 L14.5273271,9.66057944 M19.3436542,11.0576168 L23.9303738,12.6439252 M12.3794112,17.5164907 L18.5881215,19.9048738 M10.8551589,19.2699626 L9.35107477,14.2116168" id="Stroke-3" stroke-width="1.56034132"></path>
                        <path d="M8.53271028,22.4953271 C17.0654206,10.0841121 24.8224299,6.98130841 24.8224299,6.98130841" id="Path" stroke-width="1.56034132"></path>
                    </g>
                </g>
                <g id="Rectangle-26-Copy-3-+-Imported-Layers-Copy-Copy-Copy" transform="translate(62.000000, 506.000000)" sketch:type="MSShapeGroup">
                    <rect id="Rectangle-26-Copy-3" fill="#0ED2FF" x="0" y="0" width="83" height="83" rx="61.8357488"></rect>
                    <path d="M35.0376355,29.4766355 C35.0376355,26.2636822 37.6424393,23.6588785 40.8561682,23.6588785 C44.0691215,23.6588785 46.6739252,26.2636822 46.6739252,29.4766355 C46.6739252,32.6895888 44.0691215,35.2943925 40.8561682,35.2943925 L19.3925234,35.2943925 M50.5617383,34.9096449 C50.5617383,31.6966916 53.1673178,29.0918879 56.3794953,29.0918879 C59.5932243,29.0918879 62.198028,31.6966916 62.198028,34.9096449 C62.198028,38.1233738 59.5932243,40.7274019 56.3794953,40.7274019 L19.3925234,40.7274019 M19.3932991,46.1689439 L47.0656542,46.1689439 C50.2786075,46.1689439 52.8834112,48.772972 52.8834112,51.9867009 C52.8834112,55.1996542 50.2786075,57.8044579 47.0656542,57.8044579 C43.8527009,57.8044579 41.2478972,55.1996542 41.2478972,51.9867009" id="Imported-Layers" stroke="#FFFFFF" stroke-width="2.34051199" stroke-linecap="round" stroke-linejoin="round"></path>
                </g>
                <g id="Rectangle-26-Copy-2-+-Imported-Layers-Copy-Copy-Copy" transform="translate(99.000000, 657.000000)" sketch:type="MSShapeGroup">
                    <rect id="Rectangle-26-Copy-2" fill="#F7B540" x="0" y="0" width="83" height="83" rx="61.8357488"></rect>
                    <path d="M50.9806168,41.2230748 C50.9806168,35.8459159 46.6219533,31.4872523 41.2455701,31.4872523 C35.8691869,31.4872523 31.5105234,35.8459159 31.5105234,41.2230748 C31.5105234,46.5986822 35.8691869,50.9573458 41.2455701,50.9573458 C46.6219533,50.9573458 50.9806168,46.5986822 50.9806168,41.2230748 L50.9806168,41.2230748 Z M41.2455701,25.8409252 L41.2455701,19.0046729 L41.2455701,25.8409252 Z M41.2455701,63.4856916 L41.2455701,56.6486636 L41.2455701,63.4856916 Z M56.650215,41.2455701 L63.4880187,41.2455701 L56.650215,41.2455701 Z M19.0046729,41.2455701 L25.8417009,41.2455701 L19.0046729,41.2455701 Z M51.8168224,30.6735421 L56.5571308,25.9340093 L51.8168224,30.6735421 Z M25.9355607,56.5555794 L30.6750935,51.815271 L25.9355607,56.5555794 Z M51.8168224,51.8168224 L56.5571308,56.5555794 L51.8168224,51.8168224 Z M25.9355607,25.934785 L30.6750935,30.6743178 L25.9355607,25.934785 Z" id="Imported-Layers" stroke="#FFFFFF" stroke-width="2.34051199" stroke-linecap="round" stroke-linejoin="round"></path>
                </g>
                <g id="Imported-Layers" transform="translate(243.000000, 309.000000)">
                    <path d="M481.828,241.328 C481.828,374.343 374.001,482.173 240.986,482.173 C107.972,482.173 0.141,374.343 0.141,241.328 C0.141,108.315 107.972,0.485 240.986,0.485 C374.001,0.485 481.828,108.315 481.828,241.328" id="Fill-1" fill="#8FD1FF" sketch:type="MSShapeGroup"></path>
                    <g id="Group-10">
                        <mask id="mask-2" sketch:name="Clip 3" fill="white">
                            <use xlink:href="#path-1"></use>
                        </mask>
                        <g id="Clip-3"></g>
                        <path d="M203,63 L203,76.956 L206.931,82.248 L202.582,91.143 L201.912,92 L217.783,92 L223.135,85.701 L212,79.806 L212,72.073 L208.379,67.942 L212.748,63 L203,63" id="Fill-2" fill="#4C9CD2" sketch:type="MSShapeGroup" mask="url(#mask-2)"></path>
                        <path d="M190.105,76.956 C190.105,76.956 193.362,74.106 194.177,76.956 C194.989,79.806 194.177,83.876 194.177,83.876 L184.408,91.608 L177.896,87.946 C177.896,87.946 177.896,87.494 180.338,83.649 C182.781,79.806 190.105,76.956 190.105,76.956" id="Fill-4" fill="#4C9CD2" sketch:type="MSShapeGroup" mask="url(#mask-2)"></path>
                        <path d="M492.732,122.339 C492.606,124.778 487.947,214.225 487.947,214.225 L475.789,225.57 L468.795,241.354 L461,263.778 L461,250.755 C461,248.315 456.615,224.705 456.615,224.705 L447.907,219.822 L443.15,209.239 L431.004,207.61 L395.215,187.26 L398.485,199.47 L411.519,210.053 L420.477,209.239 L423.732,222.263 L413.97,234.474 L387.919,252.385 C387.919,252.385 382.22,248.315 382.22,243.244 C382.22,238.172 375.708,229.59 374.896,226.334 C374.083,223.078 357.799,201.099 357.799,201.099 L344.775,188.889 L352.102,206.797 L356.987,225.521 L367.568,241.328 L383.034,259.709 L403.386,262.154 L387.919,288.201 L363.499,313.438 L365.126,325.648 L361.869,355.766 L343.96,372.862 L336.633,389.144 L333.379,402.982 L313.84,416.821 L286.977,424.148 L277.211,407.052 L269.884,388.328 C269.884,388.328 261.742,371.235 261.742,368.79 C261.742,366.351 269.884,351.696 269.884,351.696 C269.884,351.696 264.999,337.043 263.369,334.603 C261.742,332.158 251.16,310.995 251.16,310.995 L257.718,293.816 L250.753,286 L233.252,286 L199.874,293.816 C199.874,293.816 173.827,288.567 170.569,284.905 C167.315,281.24 148.591,259.078 146.964,256.636 C145.333,254.193 146.964,240.265 146.964,237.822 C146.964,235.38 156.73,203.587 157.545,201.145 C158.357,198.704 165.163,193.794 165.163,193.794 L174,186.853 L174,181.968 C174,181.968 181.24,173.421 182.053,170.979 C182.867,168.536 191.472,163.653 191.472,163.653 L207.072,162.838 L223.417,155.513 L254.381,149.068 L260.912,155.513 L256.033,166.925 L283.723,182 L292.677,182 L293.489,174.456 L300.816,170.986 L307.328,175.867 L316.282,176.68 L328.494,181.563 L335.006,177.492 L340.703,182.52 L347.218,179 L350.473,179 L352.917,171.959 L350.883,158 L331.748,158 L321.982,150.798 L317.912,144 L324.425,144 L328.494,139.907 L341.113,135 L349.657,135 L359.328,143.289 L369,141.674 L369,136.652 C369,136.652 360.144,125.393 356.074,122.136 C352.004,118.879 360.192,117.252 360.192,117.252 C360.192,117.252 356.96,115.184 353.702,117.627 C350.447,120.068 335.009,118 335.009,118 L329.307,118 C329.307,118 325.236,120.883 322.794,122.512 C320.354,124.139 320.354,127.941 320.354,127.941 L326.459,135 L306.972,135 L304.886,143.018 C304.886,143.018 308.144,148.553 306.516,146.109 C304.886,143.668 297.035,145.522 297.035,145.522 L290,136.789 L290,132.719 L267.849,118 L263.369,118 L267.441,122.512 L285.912,139.825 L282,139.231 L282,145.744 L279,147.777 L279,139.639 L269.963,135.161 L258.83,130.276 L251.333,122.736 L238.544,127 L228.367,127 L224.734,133.32 L215,141.674 L215,147.372 L193.598,157.141 L182.185,149.815 L178.819,145.531 L182.373,127 L208.016,127 L212.086,116.768 L208.014,111.04 C208.014,111.04 199.062,101.122 199.062,103.565 C199.062,106.007 207.201,96.976 209.644,99.416 C212.086,101.86 220.225,98.954 220.225,98.954 L228.367,89.969 L237.321,83 L249.533,83 L247.902,73.874 L251.973,68.699 C251.973,68.699 251.973,75.067 253.602,77.508 C255.23,79.952 269.068,84.762 269.068,84.762 L280.465,80.655 L285.512,82.268 L293,78.177 L293,72 L299.597,72 L300.001,69 L310.586,69 L319.381,60 L297.154,60 L293,55.384 L293,50.093 L301.182,42.36 L290.416,38.289 L287.881,43.174 L277.259,50.501 L278.86,55.384 C278.861,55.384 284.546,54.57 282.919,57.013 C281.292,59.455 277.217,62.711 277.217,62.711 L275.585,68.409 L268.257,72.479 L264.184,73.294 L260.114,67.594 L255.23,60.269 L240.986,65.153 L236.565,62.711 L235,55.384 C235,55.384 232,48.872 235,48.872 C238,48.872 247.965,46.43 247.965,46.43 L252.816,38.289 L261.758,34.22 L273.959,29.202 L286.977,25 L306.924,25 C306.924,25 316.987,30.629 319.483,32.256 C321.982,33.883 328.494,34.864 331.748,36.494 C335.006,38.122 343.148,39.833 343.148,39.833 L336.633,44.76 L326.864,42.34 L329.307,48.047 L337.448,52.937 C337.448,52.937 343.96,50.498 346.402,50.498 C348.845,50.498 352.102,44.799 354.545,46.428 C354.545,46.428 362.684,41.545 364.31,43.987 C365.941,46.428 365.941,46.43 365.941,46.43 C365.941,46.43 373.268,48.872 377.338,50.501 C381.407,52.128 388.734,53.757 388.734,53.757 C388.734,53.757 495.254,73.028 492.732,122.339" id="Fill-5" fill="#4C9CD2" sketch:type="MSShapeGroup" mask="url(#mask-2)"></path>
                        <path d="M151.033,17.323 L161.818,22 L166.5,22 L158.765,26.277 L145.741,36.15 L138.822,40.475 L129.867,50.169 L118.471,54.609 L108.702,75.71 L105.444,76.967 C105.444,76.967 94.863,76.555 92.42,76.96 C89.978,77.368 82.654,78.993 81.839,76.958 C81.023,74.923 81.839,67.597 81.839,67.597 L90.793,57.013 L87.536,50.093 C87.536,50.093 90.793,49.174 94.048,45.512 C97.305,41.849 151.033,17.323 151.033,17.323" id="Fill-6" fill="#4C9CD2" sketch:type="MSShapeGroup" mask="url(#mask-2)"></path>
                        <path d="M39.306,109.111 C39.306,109.111 46.735,103.412 45.92,109.111 C45.105,114.81 45.156,114.81 45.156,114.81 C45.156,114.81 50.878,110.649 53.32,110.694 C55.763,110.739 64.731,116.438 65.543,118.88 C66.358,121.322 65.552,132.719 65.552,132.719 L42.82,140.859 L38,149.815 L38,158 L46.837,158 L32.995,166.32 L27.298,176.791 L19.971,182.433 C19.971,182.433 14.895,196.241 14.895,199.499 C14.895,202.753 9,213.309 9,213.309 L9,216.158 C9,216.158 8.785,217.748 8.626,219.845 C8.399,222.836 8.272,226.862 8.988,228.776 C10.208,232.032 11.426,235.288 10.204,232.032 C8.984,228.776 0.141,224.909 0.141,224.909 L-6.077,206.797 C-6.077,206.797 0.141,183.19 0.141,180.746 C0.141,178.306 7.758,149 8.573,147.372 C9.388,145.744 21.601,131.905 20.785,135.161 C19.971,138.417 23.228,144.115 23.228,144.115 L26.483,140.045 L29.916,132.719 L37.067,127.834 L39.306,109.111" id="Fill-7" fill="#4C9CD2" sketch:type="MSShapeGroup" mask="url(#mask-2)"></path>
                        <path d="M-5.967,233.787 C-5.967,233.787 4.563,246.889 4.563,249.328 C4.563,251.773 2.088,260.626 4.531,263.068 C6.973,265.511 3.703,261.39 6.957,265.459 C10.215,269.529 11.023,284.154 11.835,284.563 C12.651,284.97 11.834,290.655 11.834,290.655 L25.67,296.35 C25.67,296.35 35.439,302.041 36.253,305.298 C37.065,308.556 46.835,319.14 50.092,321.579 C53.346,324.022 55.792,326.464 57.416,328.903 C59.046,331.346 57.419,340.395 57.419,340.395 L65.908,347 L71.257,347 L81.477,351.587 C81.477,351.587 88.351,353.68 90.793,356.119 C93.235,358.565 103.005,362.454 103.005,362.454 L107.887,370.51 L103.817,377.792 C103.817,377.792 97.305,388.418 98.117,392.487 C98.932,396.558 98.117,408 98.117,408 L92.016,408 L82,409.494 L82,423.738 C82,423.738 73.373,426.588 70.93,423.738 C68.488,420.891 53.974,406.237 50.934,402.982 C47.889,399.729 30.034,375.305 30.034,375.305 L21.661,350.069 L19.187,336.23 L14.286,310.995 L15.91,301.226 L11.833,295.525 L7.763,284.539 L3.415,275.99 L-5,265.408 L-5,257.674 L-5.967,233.787" id="Fill-8" fill="#4C9CD2" sketch:type="MSShapeGroup" mask="url(#mask-2)"></path>
                        <path d="M394.412,344.721 C394.412,344.721 387.909,352.278 387.094,354.721 C386.279,357.163 374.076,362.977 374.076,362.977 C374.076,362.977 373.265,370.363 374.079,372.807 C374.894,375.246 377.423,376.091 373.716,378.53 C370.009,380.973 371.735,385.059 373.726,386.687 C375.718,388.316 383,386.701 383,386.701 L383,373.675 L389.732,366.305 L394.506,355.766 L398,350.069 L398,341" id="Fill-9" fill="#4C9CD2" sketch:type="MSShapeGroup" mask="url(#mask-2)"></path>
                    </g>
                </g>
            </g>
        </g>
    </g>
</svg>