<?xml version="1.0" encoding="UTF-8" standalone="no"?>
<svg width="54px" height="54px" viewBox="0 0 54 54" version="1.1" xmlns="http://www.w3.org/2000/svg" xmlns:xlink="http://www.w3.org/1999/xlink" xmlns:sketch="http://www.bohemiancoding.com/sketch/ns">
    <!-- Generator: Sketch 3.3 (11970) - http://www.bohemiancoding.com/sketch -->
    <title>Rectangle 26 Copy 2 + Imported Layers Copy</title>
    <desc>Created with Sketch.</desc>
    <defs></defs>
    <g id="Page-1" stroke="none" stroke-width="1" fill="none" fill-rule="evenodd" sketch:type="MSPage">
        <g id="Desktop-HD-Copy-4" sketch:type="MSArtboardGroup" transform="translate(-1127.000000, -237.000000)">
            <g id="Rectangle-26-Copy-2-+-Imported-Layers-Copy" sketch:type="MSLayerGroup" transform="translate(1127.000000, 237.000000)">
                <rect id="Rectangle-26-Copy-2" fill="#F7B540" sketch:type="MSShapeGroup" x="0" y="0" width="54" height="54"></rect>
                <path d="M33.1681121,26.8198318 C33.1681121,23.3214393 30.3323551,20.4856822 26.8344673,20.4856822 C23.3365794,20.4856822 20.5008224,23.3214393 20.5008224,26.8198318 C20.5008224,30.317215 23.3365794,33.152972 26.8344673,33.152972 C30.3323551,33.152972 33.1681121,30.317215 33.1681121,26.8198318 L33.1681121,26.8198318 Z M26.8344673,16.8121682 L26.8344673,12.364486 L26.8344673,16.8121682 Z M26.8344673,41.3039439 L26.8344673,36.855757 L26.8344673,41.3039439 Z M36.8567664,26.8344673 L41.3054579,26.8344673 L36.8567664,26.8344673 Z M12.364486,26.8344673 L16.8126729,26.8344673 L12.364486,26.8344673 Z M33.7121495,19.9562804 L36.7962056,16.872729 L33.7121495,19.9562804 Z M16.8737383,36.7951963 L19.9572897,33.7111402 L16.8737383,36.7951963 Z M33.7121495,33.7121495 L36.7962056,36.7951963 L33.7121495,33.7121495 Z M16.8737383,16.8732336 L19.9572897,19.956785 L16.8737383,16.8732336 Z" id="Imported-Layers" stroke="#FFFFFF" stroke-width="1.51401869" stroke-linecap="round" stroke-linejoin="round" sketch:type="MSShapeGroup"></path>
            </g>
        </g>
    </g>
</svg>