<?xml version="1.0" encoding="UTF-8" standalone="no"?>
<svg width="54px" height="54px" viewBox="0 0 54 54" version="1.1" xmlns="http://www.w3.org/2000/svg" xmlns:xlink="http://www.w3.org/1999/xlink" xmlns:sketch="http://www.bohemiancoding.com/sketch/ns">
    <!-- Generator: Sketch 3.3 (11970) - http://www.bohemiancoding.com/sketch -->
    <title>Rectangle 26 + Imported Layers Copy</title>
    <desc>Created with Sketch.</desc>
    <defs></defs>
    <g id="Page-1" stroke="none" stroke-width="1" fill="none" fill-rule="evenodd" sketch:type="MSPage">
        <g id="Desktop-HD-Copy-4" sketch:type="MSArtboardGroup" transform="translate(-1127.000000, -182.000000)">
            <g id="Rectangle-26-+-Imported-Layers-Copy" sketch:type="MSLayerGroup" transform="translate(1127.000000, 182.000000)">
                <rect id="Rectangle-26" fill="#018CDD" sketch:type="MSShapeGroup" x="0" y="0" width="54" height="54"></rect>
                <path d="M9.69678505,19.4507664 C10.9771402,19.4542991 11.8921121,20.9415701 11.8921121,20.9415701 M20.5240374,20.9415701 C20.5240374,20.9415701 18.4609346,17.5880187 16.1954579,20.9415701 C13.928972,24.2946168 11.8921121,20.9415701 11.8921121,20.9415701 M29.1559626,20.9415701 C29.1559626,20.9415701 27.0933645,17.5880187 24.8273832,20.9415701 C22.5603925,24.2946168 20.5240374,20.9415701 20.5240374,20.9415701 M37.7878879,20.9415701 C37.7878879,20.9415701 35.7257944,17.5880187 33.4588037,20.9415701 C31.1928224,24.2946168 29.1559626,20.9415701 29.1559626,20.9415701 M37.7878879,20.9415701 C37.7878879,20.9415701 39.8252523,24.2946168 42.0917383,20.9415701 C42.8795327,19.7757757 43.662785,19.4507664 44.303215,19.452785 M9.69678505,25.5093645 C10.9771402,25.5128972 11.8921121,26.9996636 11.8921121,26.9996636 M20.5240374,26.9996636 C20.5240374,26.9996636 18.4609346,23.6471215 16.1954579,26.9996636 C13.928972,30.353215 11.8921121,26.9996636 11.8921121,26.9996636 M29.1559626,26.9996636 C29.1559626,26.9996636 27.0933645,23.6471215 24.8273832,26.9996636 C22.5603925,30.353215 20.5240374,26.9996636 20.5240374,26.9996636 M37.7878879,26.9996636 C37.7878879,26.9996636 35.7257944,23.6471215 33.4588037,26.9996636 C31.1928224,30.353215 29.1559626,26.9996636 29.1559626,26.9996636 M37.7878879,26.9996636 C37.7878879,26.9996636 39.8252523,30.353215 42.0917383,26.9996636 C42.8795327,25.8343738 43.662785,25.5093645 44.303215,25.5113832 M9.69678505,31.5679626 C10.9771402,31.5714953 11.8921121,33.0587664 11.8921121,33.0587664 M20.5240374,33.0587664 C20.5240374,33.0587664 18.4609346,29.705215 16.1954579,33.0587664 C13.928972,36.4123178 11.8921121,33.0587664 11.8921121,33.0587664 M29.1559626,33.0587664 C29.1559626,33.0587664 27.0933645,29.705215 24.8273832,33.0587664 C22.5603925,36.4123178 20.5240374,33.0587664 20.5240374,33.0587664 M37.7878879,33.0587664 C37.7878879,33.0587664 35.7257944,29.705215 33.4588037,33.0587664 C31.1928224,36.4123178 29.1559626,33.0587664 29.1559626,33.0587664 M37.7878879,33.0587664 C37.7878879,33.0587664 39.8252523,36.4123178 42.0917383,33.0587664 C42.8795327,31.892972 43.662785,31.5679626 44.303215,31.5699813" id="Imported-Layers" stroke="#FFFFFF" stroke-width="1.51401869" stroke-linecap="round" stroke-linejoin="round" sketch:type="MSShapeGroup"></path>
            </g>
        </g>
    </g>
</svg>