<?xml version="1.0" encoding="UTF-8" standalone="no"?>
<svg width="54px" height="54px" viewBox="0 0 54 54" version="1.1" xmlns="http://www.w3.org/2000/svg" xmlns:xlink="http://www.w3.org/1999/xlink" xmlns:sketch="http://www.bohemiancoding.com/sketch/ns">
    <!-- Generator: Sketch 3.3 (11970) - http://www.bohemiancoding.com/sketch -->
    <title>Rectangle 26 Copy 3 + Imported Layers Copy</title>
    <desc>Created with Sketch.</desc>
    <defs></defs>
    <g id="Page-1" stroke="none" stroke-width="1" fill="none" fill-rule="evenodd" sketch:type="MSPage">
        <g id="Desktop-HD-Copy-4" sketch:type="MSArtboardGroup" transform="translate(-1127.000000, -127.000000)">
            <g id="Rectangle-26-Copy-3-+-Imported-Layers-Copy" sketch:type="MSLayerGroup" transform="translate(1127.000000, 127.000000)">
                <rect id="Rectangle-26-Copy-3" fill="#0ED2FF" sketch:type="MSShapeGroup" x="0" y="0" width="54" height="54"></rect>
                <path d="M22.7955701,19.1775701 C22.7955701,17.087215 24.4902617,15.3925234 26.5811215,15.3925234 C28.6714766,15.3925234 30.3661682,17.087215 30.3661682,19.1775701 C30.3661682,21.2679252 28.6714766,22.9626168 26.5811215,22.9626168 L12.6168224,22.9626168 M32.8955888,22.7122991 C32.8955888,20.6219439 34.590785,18.9272523 36.6806355,18.9272523 C38.7714953,18.9272523 40.4661869,20.6219439 40.4661869,22.7122991 C40.4661869,24.8031589 38.7714953,26.4973458 36.6806355,26.4973458 L12.6168224,26.4973458 M12.6173271,30.0376262 L30.621028,30.0376262 C32.7113832,30.0376262 34.4060748,31.7318131 34.4060748,33.8226729 C34.4060748,35.913028 32.7113832,37.6077196 30.621028,37.6077196 C28.5306729,37.6077196 26.8359813,35.913028 26.8359813,33.8226729" id="Imported-Layers" stroke="#FFFFFF" stroke-width="1.51401869" stroke-linecap="round" stroke-linejoin="round" sketch:type="MSShapeGroup"></path>
            </g>
        </g>
    </g>
</svg>